<svg xmlns="http://www.w3.org/2000/svg" width="143.256" height="42.84" viewBox="0 0 143.256 42.84">
    <defs>
        <style>
            .cls-1{fill:#f9b508}.cls-2{fill:#393e46}
        </style>
    </defs>
    <g id="Camada_2" data-name="Camada 2" transform="translate(0 .005)">
        <g id="Camada_1" data-name="Camada 1" transform="translate(0 -.005)">
            <g id="Logo_ferias" data-name="Logo ferias">
                <path id="Caminho_1" d="M137.461 27.029a15.479 15.479 0 0 0 3.345-3.559 9.45 9.45 0 0 0 1.26-4.864 6.546 6.546 0 0 0-2.041-4.983 6.766 6.766 0 0 0-5.134-2.029 7.3 7.3 0 0 0-5.393 1.991 6.98 6.98 0 0 0-2.079 5.179 7.755 7.755 0 0 0 1.26 4.41A29.011 29.011 0 0 0 130.972 26a19.53 19.53 0 0 0-4.939 4.58 11.277 11.277 0 0 0-2.173 6.709 10.225 10.225 0 0 0 1.348 5.223 9.33 9.33 0 0 0 3.944 3.66 12.556 12.556 0 0 0 5.8 1.26 10.958 10.958 0 0 0 9.607-4.555l3.78 4.643h5.714zm-2.8-10.987a2.892 2.892 0 0 1 2.892 2.892c0 1.6-1.575 3.15-2.885 4.687-1.3-1.581-2.9-3.112-2.9-4.687a2.885 2.885 0 0 1 2.892-2.892zm.265 27.014a6.842 6.842 0 0 1-4.763-1.6 5.468 5.468 0 0 1-1.682-4.215 7.352 7.352 0 0 1 1.436-4.6 14.226 14.226 0 0 1 3.818-3.282l7.963 9.859c-1.26 3.011-4.927 3.818-6.753 3.818z" class="cls-1" data-name="Caminho 1" transform="translate(-46.743 -4.684)"/>
                <path id="Caminho_2" d="M67.75 29.394V11.71h2.476v17.684z" class="cls-2" data-name="Caminho 2" transform="translate(-25.471 -4.445)"/>
                <path id="Caminho_3" d="M92.42 11.674v17.684h-2.482v-3.024a7.522 7.522 0 0 1-2.583 2.23 7.144 7.144 0 0 1-3.358.8 8.467 8.467 0 0 1-4.41-1.14 8.083 8.083 0 0 1-3.024-3.15 10.307 10.307 0 0 1 0-9.2 7.894 7.894 0 0 1 2.986-3.15 8.3 8.3 0 0 1 4.353-1.14 7.258 7.258 0 0 1 6.016 3.062V11.68zM87.046 26.3a5.8 5.8 0 0 0 2.129-2.381 8.19 8.19 0 0 0 0-6.93 5.67 5.67 0 0 0-5.248-3.238 5.594 5.594 0 0 0-3.081.869 5.853 5.853 0 0 0-2.11 2.369 7.484 7.484 0 0 0-.769 3.44 7.711 7.711 0 0 0 .769 3.49 5.834 5.834 0 0 0 2.11 2.381 5.544 5.544 0 0 0 3.062.857 5.714 5.714 0 0 0 3.112-.857z" class="cls-2" data-name="Caminho 3" transform="translate(-28.427 -4.395)"/>
                <path id="Caminho_4" d="M117.638 21.837A5.04 5.04 0 0 0 115.7 20.3a16.381 16.381 0 0 0-2.86-.951 12.556 12.556 0 0 1-3.289-1.2 2.041 2.041 0 0 1-1.065-1.72 2.079 2.079 0 0 1 .976-1.89 4.316 4.316 0 0 1 2.52-.668 6.609 6.609 0 0 1 2.911 1.077l1.367-1.732a6.653 6.653 0 0 0-4.145-1.619 7.61 7.61 0 0 0-3.062.63 5.33 5.33 0 0 0-2.186 1.726 4.265 4.265 0 0 0-.806 2.52 3.906 3.906 0 0 0 1.669 3.4 13.419 13.419 0 0 0 4.41 1.8 10.71 10.71 0 0 1 2.948 1.121 1.978 1.978 0 0 1 .9 1.777 2.085 2.085 0 0 1-1.039 1.89 4.845 4.845 0 0 1-2.6.68 5.991 5.991 0 0 1-4.977-2.432.966.966 0 0 1-.1-.069l-1.518 1.89a8.1 8.1 0 0 0 6.4 2.822 7.358 7.358 0 0 0 4.41-1.3 4.189 4.189 0 0 0 1.833-3.559 4.265 4.265 0 0 0-.756-2.665z" class="cls-2" data-name="Caminho 4" transform="translate(-39.805 -4.404)"/>
                <path id="Caminho_6" d="M167.976 52.868a8.032 8.032 0 0 1 0-6.93 5.771 5.771 0 0 1 5.3-3.238 5.443 5.443 0 0 1 4.675 2.52l1.455-1.89a6.691 6.691 0 0 0-2.438-1.972 7.56 7.56 0 0 0-3.692-.869 8.681 8.681 0 0 0-4.454 1.14 7.963 7.963 0 0 0-3.062 3.15 9.311 9.311 0 0 0-1.06 4.121l3.339 4.026z" class="cls-2" data-name="Caminho 6" transform="translate(-62.011 -15.378)"/>
                <path id="Caminho_7" d="M179.791 64.787a8.82 8.82 0 0 0 3.024-2.331l-1.525-1.846a8.247 8.247 0 0 1-2.52 2.262 6.426 6.426 0 0 1-2.929.586 5.909 5.909 0 0 1-3.15-.857 5.312 5.312 0 0 1-.491-.347l2.8 3.358c.3 0 .592.05.907.05a8.694 8.694 0 0 0 3.887-.876z" class="cls-2" data-name="Caminho 7" transform="translate(-64.801 -22.824)"/>
                <path id="Caminho_8" d="M206.29 41.663a8.656 8.656 0 0 0-4.41-1.134 8.555 8.555 0 0 0-4.41 1.134 7.982 7.982 0 0 0-3.024 3.15 10.036 10.036 0 0 0 0 9.122 7.951 7.951 0 0 0 3.055 3.15 8.763 8.763 0 0 0 4.41 1.134 8.618 8.618 0 0 0 4.41-1.134 7.944 7.944 0 0 0 3.024-3.15 9.538 9.538 0 0 0 1.09-4.567 9.374 9.374 0 0 0-1.109-4.561 8.007 8.007 0 0 0-3.036-3.144zm.882 11.132a5.764 5.764 0 0 1-2.161 2.369 5.89 5.89 0 0 1-3.15.851 5.714 5.714 0 0 1-3.062-.844 5.79 5.79 0 0 1-2.167-2.375 7.5 7.5 0 0 1-.775-3.465 7.389 7.389 0 0 1 .775-3.415 5.859 5.859 0 0 1 2.167-2.344 5.771 5.771 0 0 1 3.062-.857 5.89 5.89 0 0 1 3.15.85 5.8 5.8 0 0 1 2.161 2.369 7.982 7.982 0 0 1 0 6.861z" class="cls-2" data-name="Caminho 8" transform="translate(-72.881 -15.393)"/>
                <path id="Caminho_9" d="M227.111 63.575a1.6 1.6 0 0 0-1.184-.485 1.525 1.525 0 0 0-1.134.485 1.607 1.607 0 0 0-.473 1.153 1.644 1.644 0 0 0 .473 1.178 1.544 1.544 0 0 0 1.134.491 1.606 1.606 0 0 0 1.184-.491 1.543 1.543 0 0 0 .485-1.147 1.581 1.581 0 0 0-.485-1.184z" class="cls-2" data-name="Caminho 9" transform="translate(-84.34 -23.741)"/>
                <path id="Caminho_10" d="M5.746 3.047A2.791 2.791 0 0 1 7.8 2.2h1.776V0H7.724a5.09 5.09 0 0 0-5.273 4.912 2.841 2.841 0 0 0 0 .328v3.622h-.756L0 11.061h2.457V22.4l2.476 3.011V11.073h3.931V8.862H4.939V5.24a3.068 3.068 0 0 1 .806-2.192z" class="cls-2" data-name="Caminho 10" transform="translate(0 .005)"/>
                <path id="Caminho_11" d="M58.023 11.71h-2.2c-.888.038-3.925.353-5.33 2.923V11.71H48V29.4h2.47v-8.442a8.461 8.461 0 0 1 .819-3.83 6.149 6.149 0 0 1 2.167-2.476 5.342 5.342 0 0 1 2.866-.869h1.7z" class="cls-2" data-name="Caminho 11" transform="translate(-18.062 -4.445)"/>
                <path id="Caminho_166" d="M34.612 19.918a8.662 8.662 0 0 0-1.058-4.259 7.875 7.875 0 0 0-2.936-3.011c-.176-.094-.365-.176-.554-.265a7.944 7.944 0 0 0-3.6-.844 8.221 8.221 0 0 0-4.1 1.027l-.246.12a7.963 7.963 0 0 0-2.992 3.15 9.7 9.7 0 0 0-1.071 4.593 9.582 9.582 0 0 0 1.115 4.63 8.039 8.039 0 0 0 3.024 3.15 8.5 8.5 0 0 0 4.41 1.134 9.815 9.815 0 0 0 4.644-1.043 8.555 8.555 0 0 0 3.15-2.9l-1.474-1.77a9.173 9.173 0 0 1-2.778 2.69 7.465 7.465 0 0 1-3.629.8 5.336 5.336 0 0 1-4.259-1.82 7.125 7.125 0 0 1-1.714-4.41h14.03a8.552 8.552 0 0 0 .038-.972zm-13.923-.964a6.722 6.722 0 0 1 1.89-3.723 5.317 5.317 0 0 1 3.881-1.474 5.512 5.512 0 0 1 3.868 1.3 6.3 6.3 0 0 1 1.783 3.9z" class="cls-2" data-name="Caminho 166" transform="translate(-6.678 -4.381)"/>
                <path id="Caminho_167" d="M27.944 5.835l-.724-1.2L33.942.6 35.2 2.692z" class="cls-2" data-name="Caminho 167" transform="translate(-10.072 -.219)"/>
            </g>
        </g>
    </g>
</svg>
