<svg xmlns="http://www.w3.org/2000/svg" width="264.178" height="79" viewBox="0 0 264.178 79">
    <defs>
        <style>
            .cls-1{fill:#f9b508}.cls-2{fill:#393e46}
        </style>
    </defs>
    <g id="Camada_2" data-name="Camada 2" transform="translate(0 .005)">
        <g id="Camada_1" data-name="Camada 1" transform="translate(0 -.005)">
            <g id="Logo_ferias" data-name="Logo ferias">
                <path id="Caminho_1" d="M148.71 39.8a28.28 28.28 0 0 0 6.112-6.5 17.265 17.265 0 0 0 2.3-8.886 11.959 11.959 0 0 0-3.729-9.1 12.362 12.362 0 0 0-9.381-3.706 13.329 13.329 0 0 0-9.853 3.637 12.753 12.753 0 0 0-3.8 9.461 14.169 14.169 0 0 0 2.3 8.057 53.006 53.006 0 0 0 4.19 5.168 35.682 35.682 0 0 0-9.024 8.368 20.6 20.6 0 0 0-3.971 12.258 18.681 18.681 0 0 0 2.463 9.542 17.046 17.046 0 0 0 7.205 6.687 22.939 22.939 0 0 0 10.589 2.3c3.027 0 11.832 0 17.553-8.322l6.906 8.483h10.44zm-5.122-20.073a5.283 5.283 0 0 1 5.283 5.283c0 2.924-2.878 5.755-5.272 8.563-2.371-2.889-5.295-5.686-5.295-8.563a5.272 5.272 0 0 1 5.283-5.283zm.483 49.355a12.5 12.5 0 0 1-8.7-2.924 9.991 9.991 0 0 1-3.073-7.7 13.432 13.432 0 0 1 2.624-8.4 25.99 25.99 0 0 1 6.975-6l14.549 18.013c-2.3 5.5-9 6.975-12.339 6.975z" class="cls-1" data-name="Caminho 1" transform="translate(18.703 1.755)"/>
                <path id="Caminho_2" d="M67.75 44.019V11.71h4.523v32.309z" class="cls-2" data-name="Caminho 2" transform="translate(10.23 1.774)"/>
                <path id="Caminho_3" d="M106.431 11.753v32.309H101.9v-5.525a13.743 13.743 0 0 1-4.719 4.075 13.052 13.052 0 0 1-6.135 1.462 15.469 15.469 0 0 1-8.057-2.083 14.767 14.767 0 0 1-5.525-5.755 18.83 18.83 0 0 1 0-16.816 14.422 14.422 0 0 1 5.456-5.755 15.17 15.17 0 0 1 7.953-2.083 13.26 13.26 0 0 1 10.992 5.594v-5.41zm-9.818 26.715a10.6 10.6 0 0 0 3.89-4.351 14.963 14.963 0 0 0 0-12.661 10.359 10.359 0 0 0-9.588-5.916 10.221 10.221 0 0 0-5.628 1.588 10.693 10.693 0 0 0-3.856 4.328 13.674 13.674 0 0 0-1.4 6.284 14.088 14.088 0 0 0 1.4 6.377 10.658 10.658 0 0 0 3.856 4.351 10.129 10.129 0 0 0 5.594 1.565 10.44 10.44 0 0 0 5.686-1.565z" class="cls-2" data-name="Caminho 3" transform="translate(11.397 1.754)"/>
                <path id="Caminho_4" d="M127.469 30.3a9.208 9.208 0 0 0-3.545-2.808 29.926 29.926 0 0 0-5.226-1.738 22.939 22.939 0 0 1-6.008-2.187 3.729 3.729 0 0 1-1.945-3.142 3.8 3.8 0 0 1 1.784-3.453 7.885 7.885 0 0 1 4.6-1.22 12.074 12.074 0 0 1 5.318 1.968l2.5-3.165a12.155 12.155 0 0 0-7.574-2.958 13.9 13.9 0 0 0-5.594 1.151 9.738 9.738 0 0 0-3.994 3.154 7.792 7.792 0 0 0-1.473 4.6 7.136 7.136 0 0 0 3.05 6.215 24.517 24.517 0 0 0 8.057 3.292 19.567 19.567 0 0 1 5.387 2.049 3.614 3.614 0 0 1 1.646 3.246 3.81 3.81 0 0 1-1.9 3.453A8.851 8.851 0 0 1 117.798 40a10.946 10.946 0 0 1-9.093-4.443 1.763 1.763 0 0 1-.184-.127l-2.771 3.46a14.79 14.79 0 0 0 11.694 5.156 13.444 13.444 0 0 0 8.057-2.371 7.654 7.654 0 0 0 3.349-6.5 7.792 7.792 0 0 0-1.381-4.869z" class="cls-2" data-name="Caminho 4" transform="translate(15.968 1.758)"/>
                <path id="Caminho_6" d="M170.685 63.108a14.675 14.675 0 0 1 0-12.661 10.543 10.543 0 0 1 9.691-5.916 9.945 9.945 0 0 1 8.54 4.6l2.659-3.453a12.224 12.224 0 0 0-4.454-3.6 13.812 13.812 0 0 0-6.745-1.588 15.861 15.861 0 0 0-8.138 2.083 14.549 14.549 0 0 0-5.594 5.755 17.012 17.012 0 0 0-1.945 7.528l6.1 7.355z" class="cls-2" data-name="Caminho 6" transform="translate(24.87 6.12)"/>
                <path id="Caminho_7" d="M186.07 68.241a16.114 16.114 0 0 0 5.525-4.259l-2.785-3.372a15.067 15.067 0 0 1-4.6 4.132 11.74 11.74 0 0 1-5.352 1.07 10.8 10.8 0 0 1-5.755-1.565 9.7 9.7 0 0 1-.9-.633l5.11 6.135c.541 0 1.082.092 1.657.092a15.883 15.883 0 0 0 7.1-1.6z" class="cls-2" data-name="Caminho 7" transform="translate(26.002 9.158)"/>
                <path id="Caminho_8" d="M216.992 42.6a15.815 15.815 0 0 0-8.057-2.072 15.631 15.631 0 0 0-8.057 2.072 14.583 14.583 0 0 0-5.525 5.755 18.335 18.335 0 0 0 0 16.666 14.525 14.525 0 0 0 5.582 5.755 16.01 16.01 0 0 0 8.057 2.072 15.746 15.746 0 0 0 8.057-2.072 14.514 14.514 0 0 0 5.525-5.755 17.427 17.427 0 0 0 1.991-8.345 17.127 17.127 0 0 0-2.026-8.333 14.629 14.629 0 0 0-5.548-5.743zm1.608 20.34a10.531 10.531 0 0 1-3.948 4.328 10.762 10.762 0 0 1-5.755 1.554 10.44 10.44 0 0 1-5.594-1.542 10.578 10.578 0 0 1-3.959-4.339 13.7 13.7 0 0 1-1.416-6.33 13.5 13.5 0 0 1 1.416-6.238 10.7 10.7 0 0 1 3.959-4.282 10.543 10.543 0 0 1 5.594-1.565 10.762 10.762 0 0 1 5.755 1.554 10.6 10.6 0 0 1 3.948 4.328 14.583 14.583 0 0 1 0 12.534z" class="cls-2" data-name="Caminho 8" transform="translate(29.196 6.126)"/>
                <path id="Caminho_9" d="M229.419 63.976a2.924 2.924 0 0 0-2.164-.886 2.785 2.785 0 0 0-2.072.886 2.935 2.935 0 0 0-.863 2.106 3 3 0 0 0 .863 2.152 2.82 2.82 0 0 0 2.072.9 2.935 2.935 0 0 0 2.164-.9 2.82 2.82 0 0 0 .886-2.095 2.889 2.889 0 0 0-.886-2.164z" class="cls-2" data-name="Caminho 9" transform="translate(33.872 9.533)"/>
                <path id="Caminho_10" d="M10.5 5.572a5.1 5.1 0 0 1 3.752-1.554H17.5V0h-3.389a9.3 9.3 0 0 0-9.634 8.979 5.191 5.191 0 0 0 0 .6V16.2H3.1L0 20.212h4.489V40.93l4.523 5.5v-26.2h7.182V16.2h-7.17V9.577A5.605 5.605 0 0 1 10.5 5.572z" class="cls-2" data-name="Caminho 10" transform="translate(0 .005)"/>
                <path id="Caminho_11" d="M66.312 11.71h-4.028c-1.623.069-7.171.645-9.737 5.341V11.71H48v32.32h4.512V28.607a15.458 15.458 0 0 1 1.5-7 11.234 11.234 0 0 1 3.959-4.523A9.76 9.76 0 0 1 63.2 15.5h3.108z" class="cls-2" data-name="Caminho 11" transform="translate(7.248 1.774)"/>
                <path id="Caminho_1-2" d="M48.31 26.849a15.826 15.826 0 0 0-1.934-7.781 14.387 14.387 0 0 0-5.364-5.5c-.322-.173-.668-.322-1.013-.483a14.514 14.514 0 0 0-6.584-1.542 15.021 15.021 0 0 0-7.493 1.876l-.449.219a14.549 14.549 0 0 0-5.467 5.755 17.714 17.714 0 0 0-1.957 8.391 17.507 17.507 0 0 0 2.037 8.46A14.687 14.687 0 0 0 25.612 42a15.527 15.527 0 0 0 8.057 2.072 17.933 17.933 0 0 0 8.494-1.9 15.631 15.631 0 0 0 5.755-5.306l-2.693-3.234a16.759 16.759 0 0 1-5.076 4.915A13.639 13.639 0 0 1 33.52 40a9.749 9.749 0 0 1-7.781-3.315 13.018 13.018 0 0 1-3.131-8.057h25.633a15.623 15.623 0 0 0 .069-1.779zm-25.437-1.762a12.281 12.281 0 0 1 3.453-6.8 9.714 9.714 0 0 1 7.09-2.693 10.071 10.071 0 0 1 7.067 2.371 11.51 11.51 0 0 1 3.257 7.125z" class="cls-2" data-name="Caminho 1" transform="translate(2.725 1.749)"/>
                <path id="Caminho_2-2" d="M28.544 10.165l-1.324-2.2L39.5.6l2.3 3.821z" class="cls-2" data-name="Caminho 2" transform="translate(4.11 .097)"/>
            </g>
        </g>
    </g>
</svg>
